<svg xmlns="http://www.w3.org/2000/svg" viewBox="0 0 1080 1080" width="1080" height="1080" role="img" aria-label="A blueprint drawing of a government building with two doors. The left door has a padlocked shield stamped RISK. The right door has a large eye-shaped badge labeled AI, and beside it a government official raises both arms as if hanging the badge in place. A measurement line spans the building above." data-harness="0.2.0" data-style="blueprint"><title>A blueprint drawing of a government building with two doors. The left door has a padlocked shield stamped RISK. The right door has a large eye-shaped badge labeled AI, and beside it a government official raises both arms as if hanging the badge in place. A measurement line spans the building above.</title><defs><pattern id="bg-grid-minor" width="30" height="30" patternUnits="userSpaceOnUse"><path d="M30 0H0V30" fill="none" stroke="#79A9DE" stroke-width="1" opacity=".3"/></pattern><pattern id="bg-grid-major" width="150" height="150" patternUnits="userSpaceOnUse"><path d="M150 0H0V150" fill="none" stroke="#79A9DE" stroke-width="2" opacity=".6"/></pattern></defs><style>svg{--bg:#1C4E89;--ink:#EEF4FF;--accent1:#FFD35C;--accent2:#79A9DE;--paper:#2A64A5}.el *{stroke-linecap:square;stroke-linejoin:miter}.r-body{fill:#2A64A5;stroke:#EEF4FF;stroke-width:4}.r-body-alt{fill:#1C4E89;stroke:#EEF4FF;stroke-width:4}.r-accent{fill:#FFD35C;stroke:#EEF4FF;stroke-width:4}.r-accent-2{fill:#79A9DE;stroke:none;opacity:0.5}.r-ink{fill:#EEF4FF;stroke:none}.r-paper{fill:#2A64A5;stroke:#EEF4FF;stroke-width:4}.r-line{fill:none;stroke:#EEF4FF;stroke-width:4}.r-thin{fill:none;stroke:#79A9DE;stroke-width:2}.r-shade{fill:#79A9DE;stroke:none;opacity:0.22}.r-glow{fill:#FFD35C;stroke:none;opacity:0.35}.r-text{fill:#EEF4FF;stroke:none}.t-accent{fill:#FFD35C;stroke:none}.t-paper{fill:#2A64A5;stroke:none}#a-dimension-line{transform-box:fill-box;transform-origin:50% 50%}#a-door-left{transform-box:fill-box;transform-origin:50% 50%}#a-door-right{transform-box:fill-box;transform-origin:50% 50%}#a-shield{transform-box:fill-box;transform-origin:50% 50%}#a-risk-label{transform-box:fill-box;transform-origin:50% 50%}#a-eye-badge{transform-box:fill-box;transform-origin:50% 50%}#a-ai-label{transform-box:fill-box;transform-origin:50% 50%}#a-official{transform-box:fill-box;transform-origin:50% 100%}#p-official--face-proud{transform-box:fill-box;transform-origin:50% 50%}#p-official--arm-l{transform-box:fill-box;transform-origin:50% 6%}#p-official--arm-r{transform-box:fill-box;transform-origin:50% 6%}</style><g id="background"><rect width="1080" height="1080" fill="#1C4E89"/><rect width="1080" height="1080" fill="url(#bg-grid-minor)"/><rect width="1080" height="1080" fill="url(#bg-grid-major)"/><rect x="24" y="24" width="1032" height="1032" fill="none" stroke="#EEF4FF" stroke-width="3"/></g><g class="el" data-el="dimension-line" transform="translate(518.4 183.6)"><g id="a-dimension-line" class="anim"><g transform="translate(-320 -20)"><line x1="10" y1="20" x2="630" y2="20" class="r-line"/><line x1="10" y1="5" x2="10" y2="35" class="r-thin"/><line x1="630" y1="5" x2="630" y2="35" class="r-thin"/></g></g></g><g class="el" data-el="door-left" transform="translate(356.4 648) scale(0.7 0.7)"><g id="a-door-left" class="anim"><g transform="translate(-110 -230)"><rect x="5" y="10" width="210" height="450" rx="6" class="r-body"/><line x1="5" y1="70" x2="215" y2="70" class="r-line"/><rect x="55" y="160" width="110" height="300" rx="4" class="r-body-alt"/><circle cx="145" cy="310" r="6" class="r-ink"/></g></g></g><g class="el" data-el="door-right" transform="translate(680.4 648) scale(0.7 0.7)"><g id="a-door-right" class="anim"><g transform="translate(-110 -230)"><rect x="5" y="10" width="210" height="450" rx="6" class="r-body"/><line x1="5" y1="70" x2="215" y2="70" class="r-line"/><rect x="55" y="160" width="110" height="300" rx="4" class="r-body-alt"/><circle cx="145" cy="310" r="6" class="r-ink"/></g></g></g><g class="el" data-el="shield" transform="translate(356.4 365) scale(0.9 0.9)"><g id="a-shield" class="anim"><g transform="translate(-100 -120)"><path d="M100,15 L180,45 L180,120 C180,180 140,215 100,230 C60,215 20,180 20,120 L20,45 Z" class="r-body"/><path d="M88,140 L88,118 C88,100 112,100 112,118 L112,140" class="r-line"/><rect x="78" y="138" width="44" height="46" rx="6" class="r-body-alt"/></g></g></g><g class="el" data-el="risk-label" transform="translate(356.4 356.5) rotate(-12)"><g id="a-risk-label" class="anim"><path class="t-accent" d="M15.2 -17.6L15.2 0L5.2 0L5.2 -47.5L23.5 -47.5Q27 -47.5 29.7 -46.4Q32.4 -45.4 34.3 -43.4Q36.2 -41.4 37.1 -38.6Q38.1 -35.8 38.1 -32.4L38.1 -32.4Q38.1 -27.3 35.9 -23.7Q33.7 -20.1 29.7 -19L29.7 -19L39 0L27.9 0L19.9 -17.6L15.2 -17.6M15.2 -25.5L21.1 -25.5Q24.7 -25.5 26.1 -26.9Q27.5 -28.2 27.5 -31.3L27.5 -31.3L27.5 -33.4Q27.5 -36.5 26.1 -37.9Q24.7 -39.2 21.1 -39.2L21.1 -39.2L15.2 -39.2L15.2 -25.5M77.9 0L47.3 0L47.3 -7.5L57.5 -7.5L57.5 -39.9L47.3 -39.9L47.3 -47.5L77.9 -47.5L77.9 -39.9L67.7 -39.9L67.7 -7.5L77.9 -7.5L77.9 0M104 0.8L104 0.8Q98 0.8 93.6 -1.2Q89.1 -3.1 86.4 -6.5L86.4 -6.5L92.3 -13.1Q94.9 -10.2 98 -8.8Q101.1 -7.5 104.3 -7.5L104.3 -7.5Q108 -7.5 109.9 -9.1Q111.8 -10.7 111.8 -13.8L111.8 -13.8Q111.8 -16.3 110.3 -17.6Q108.9 -18.9 105.4 -19.4L105.4 -19.4L100.4 -20.3Q94 -21.4 91.2 -25Q88.3 -28.6 88.3 -33.9L88.3 -33.9Q88.3 -40.7 92.8 -44.5Q97.3 -48.3 105.4 -48.3L105.4 -48.3Q110.9 -48.3 115 -46.6Q119.1 -44.9 121.6 -42L121.6 -42L115.8 -35.5Q113.9 -37.6 111.3 -38.8Q108.7 -40 105.5 -40L105.5 -40Q98.6 -40 98.6 -34.3L98.6 -34.3Q98.6 -31.9 100.1 -30.7Q101.7 -29.4 105.1 -28.8L105.1 -28.8L110.1 -27.9Q115.9 -26.9 119 -23.6Q122.1 -20.3 122.1 -14.6L122.1 -14.6Q122.1 -11.3 121 -8.5Q119.8 -5.6 117.5 -3.6Q115.2 -1.5 111.8 -0.3Q108.5 0.8 104 0.8M156 0L145.5 -19.8L141.3 -13.9L141.3 0L131.1 0L131.1 -47.5L141.3 -47.5L141.3 -27.6L141.8 -27.6L147 -35.5L155.4 -47.5L166.8 -47.5L152.6 -27.4L167.5 0L156 0" transform="translate(-83.6 23.8)"/></g></g><g class="el" data-el="eye-badge" transform="translate(680.4 405.5) scale(0.9 0.9)"><g id="a-eye-badge" class="anim"><g transform="translate(-110 -75)"><path d="M10,75 C60,10 160,10 210,75 C160,140 60,140 10,75 Z" class="r-body"/><circle cx="110" cy="75" r="34" class="r-accent-2"/><circle cx="110" cy="75" r="13" class="r-ink"/></g></g></g><g class="el" data-el="ai-label" transform="translate(680.4 503.1)"><g id="a-ai-label" class="anim"><path class="r-text" d="M27.4 0L20 0L18 -7.7L9.2 -7.7L7.2 0L0.2 0L8.9 -32.1L18.7 -32.1L27.4 0M16.9 -13.3L13.8 -25.4L13.4 -25.4L10.3 -13.3L16.9 -13.3M52.7 0L32 0L32 -5.1L38.9 -5.1L38.9 -27L32 -27L32 -32.1L52.7 -32.1L52.7 -27L45.8 -27L45.8 -5.1L52.7 -5.1L52.7 0" transform="translate(-28.1 16.1)"/></g></g><g class="el" data-el="official" transform="translate(885.6 808.9) scale(0.85 0.85)"><g id="a-official" class="anim"><rect class="r-ink" x="-44" y="-150" width="36" height="142" rx="14"/><rect class="r-ink" x="8" y="-150" width="36" height="142" rx="14"/><path class="r-ink" d="M-52 -20H-14A10 10 0 0 1 -4 -10V-10A10 10 0 0 1 -14 0H-52A10 10 0 0 1 -62 -10V-10A10 10 0 0 1 -52 -20Z"/><path class="r-ink" d="M14 -20H52A10 10 0 0 1 62 -10V-10A10 10 0 0 1 52 0H14A10 10 0 0 1 4 -10V-10A10 10 0 0 1 14 -20Z"/><path class="r-body" d="M-70 -276Q-70 -300 -46 -300H46Q70 -300 70 -276L78 -138Q78 -128 66 -128H-66Q-78 -128 -78 -138Z"/><rect class="r-body-alt" x="-16" y="-318" width="32" height="24" rx="6"/><path class="r-ink" d="M-58 -368Q-56 -430 0 -426Q56 -430 58 -368Q30 -398 -58 -368Z"/><circle class="r-body-alt" cx="0" cy="-364" r="58"/><g id="p-official--face-proud"><path class="r-line" d="M-26.7 -366.9Q-18.9 -378.9 -11.1 -366.9"/><path class="r-line" d="M11.1 -366.9Q18.9 -378.9 26.7 -366.9"/><path class="r-ink" d="M-22.7 -348Q0 -322.2 22.7 -348Z"/><circle class="r-glow" cx="-29.3" cy="-347.1" r="7.2"/><circle class="r-glow" cx="29.3" cy="-347.1" r="7.2"/></g><g transform="translate(-66 -284) rotate(150)"><g id="p-official--arm-l"><rect class="r-body" x="-15" y="0" width="30" height="130" rx="15"/><circle class="r-body-alt" cx="0" cy="138" r="16"/></g></g><g transform="translate(66 -284) rotate(-150)"><g id="p-official--arm-r"><rect class="r-body" x="-15" y="0" width="30" height="130" rx="15"/><circle class="r-body-alt" cx="0" cy="138" r="16"/></g></g></g></g></svg>