<svg xmlns="http://www.w3.org/2000/svg" viewBox="0 0 1080 1080" width="1080" height="1080" role="img" aria-label="A two-panel paper-cutout scene split by a thin vertical line. Left: a robot wearing a white coat collar holds a prescription pad beside an empty doctor's stool with a red stethoscope draped on it. Right: another robot leans toward an open bank vault with a dark interior, beside an empty guard's chair." data-harness="0.2.0" data-style="paper-cutout"><title>A two-panel paper-cutout scene split by a thin vertical line. Left: a robot wearing a white coat collar holds a prescription pad beside an empty doctor&apos;s stool with a red stethoscope draped on it. Right: another robot leans toward an open bank vault with a dark interior, beside an empty guard&apos;s chair.</title><defs><filter id="grain" x="0" y="0" width="216" height="216" filterUnits="userSpaceOnUse"><feTurbulence type="fractalNoise" baseFrequency=".9" numOctaves="2" seed="7" stitchTiles="stitch"/><feColorMatrix type="matrix" values="0 0 0 0 0.184  0 0 0 0 0.165  0 0 0 0 0.145  0 0 0 -2.2 1.25"/><feComponentTransfer><feFuncA type="discrete" tableValues="0 0.45 0.9"/></feComponentTransfer></filter><pattern id="grain-tile" width="216" height="216" patternUnits="userSpaceOnUse"><rect width="216" height="216" filter="url(#grain)"/></pattern><filter id="shadow-soft" x="-20%" y="-20%" width="140%" height="150%"><feDropShadow dx="0" dy="10" stdDeviation="9" flood-color="#2F2A25" flood-opacity=".3"/></filter></defs><style>svg{--bg:#E8DCC4;--ink:#2F2A25;--accent1:#E4643B;--accent2:#3F8F7F;--paper:#FBF6EC}.el *{stroke-linecap:round;stroke-linejoin:round}.r-body{fill:#3F8F7F;stroke:none}.r-body-alt{fill:#FBF6EC;stroke:none}.r-accent{fill:#E4643B;stroke:none}.r-accent-2{fill:#3F8F7F;stroke:none}.r-ink{fill:#2F2A25;stroke:none}.r-paper{fill:#FBF6EC;stroke:none}.r-line{fill:none;stroke:#2F2A25;stroke-width:5}.r-thin{fill:none;stroke:#2F2A25;stroke-width:3}.r-shade{fill:#2F2A25;stroke:none;opacity:0.14}.r-glow{fill:#FBF6EC;stroke:none;opacity:0.55}.r-text{fill:#2F2A25;stroke:none}.t-accent{fill:#E4643B;stroke:none}.t-paper{fill:#FBF6EC;stroke:none}.el&gt;.anim{filter:url(#shadow-soft)}#a-divider{transform-box:fill-box;transform-origin:50% 50%}#a-stool{transform-box:fill-box;transform-origin:50% 50%}#a-robot-doctor{transform-box:fill-box;transform-origin:50% 100%}#p-robot-doctor--face-proud{transform-box:fill-box;transform-origin:50% 50%}#p-robot-doctor--antenna{transform-box:fill-box;transform-origin:50% 100%}#p-robot-doctor--arm-l{transform-box:fill-box;transform-origin:50% 6%}#p-robot-doctor--arm-r{transform-box:fill-box;transform-origin:50% 6%}#a-coat-and-pad{transform-box:fill-box;transform-origin:50% 50%}#a-robot-vault{transform-box:fill-box;transform-origin:50% 100%}#p-robot-vault--face-neutral{transform-box:fill-box;transform-origin:50% 50%}#p-robot-vault--antenna{transform-box:fill-box;transform-origin:50% 100%}#p-robot-vault--arm-l{transform-box:fill-box;transform-origin:50% 6%}#p-robot-vault--arm-r{transform-box:fill-box;transform-origin:50% 6%}#a-vault-door{transform-box:fill-box;transform-origin:50% 50%}#a-guard-chair{transform-box:fill-box;transform-origin:50% 50%}</style><g id="background"><rect width="1080" height="1080" fill="#E8DCC4"/><path d="M0 807L135 791L270 807L405 791L540 807L675 791L810 807L945 791L1080 807V1080H0Z" fill="#3F8F7F"/></g><g class="el" data-el="divider" transform="translate(540 540)"><g id="a-divider" class="anim"><g transform="translate(-10 -480)"><rect class="r-ink" x="4" y="0" width="12" height="960" rx="2"/></g></g></g><g class="el" data-el="stool" transform="translate(156.6 712.8) scale(1.2 1.2)"><g id="a-stool" class="anim"><g transform="translate(-90 -120)"><ellipse class="r-body-alt" cx="90" cy="50" rx="68" ry="20"/><path class="r-line" d="M40,60 L30,230"/><path class="r-line" d="M90,65 L90,235"/><path class="r-line" d="M140,60 L150,230"/><circle class="r-accent" cx="30" cy="36" r="10"/><circle class="r-accent" cx="55" cy="27" r="10"/><path class="r-accent" d="M30,45 Q16,72 34,94 Q46,106 58,96 Q66,89 60,78 Q55,70 47,76 Q42,80 46,86 Q36,92 26,78 Q18,62 32,46 Z"/><circle class="r-accent" cx="60" cy="100" r="15"/></g></g></g><g class="el" data-el="robot-doctor" transform="translate(356.4 799.2) scale(0.8 0.8)"><g id="a-robot-doctor" class="anim"><rect class="r-body-alt" x="-62" y="-96" width="40" height="90" rx="12"/><rect class="r-body-alt" x="22" y="-96" width="40" height="90" rx="12"/><path class="r-ink" d="M-69 -22H-21A11 11 0 0 1 -10 -11V-11A11 11 0 0 1 -21 0H-69A11 11 0 0 1 -80 -11V-11A11 11 0 0 1 -69 -22Z"/><path class="r-ink" d="M21 -22H69A11 11 0 0 1 80 -11V-11A11 11 0 0 1 69 0H21A11 11 0 0 1 10 -11V-11A11 11 0 0 1 21 -22Z"/><g transform="translate(-104 -238) rotate(0)"><g id="p-robot-doctor--arm-l"><rect class="r-body-alt" x="-16" y="0" width="32" height="120" rx="16"/><circle class="r-accent" cx="0" cy="132" r="22"/></g></g><g transform="translate(104 -238) rotate(0)"><g id="p-robot-doctor--arm-r"><rect class="r-body-alt" x="-16" y="0" width="32" height="120" rx="16"/><circle class="r-accent" cx="0" cy="132" r="22"/></g></g><rect class="r-body" x="-92" y="-262" width="184" height="172" rx="22"/><rect class="r-paper" x="-56" y="-226" width="112" height="70" rx="12"/><circle class="r-accent" cx="-30" cy="-191" r="10"/><circle class="r-accent-2" cx="0" cy="-191" r="10"/><circle class="r-ink" cx="30" cy="-191" r="10"/><path class="r-thin" d="M-50 -128L50 -128"/><rect class="r-body-alt" x="-22" y="-284" width="44" height="26" rx="6"/><rect class="r-body-alt" x="-86" y="-420" width="172" height="140" rx="26"/><rect class="r-paper" x="-66" y="-402" width="132" height="104" rx="18"/><g id="p-robot-doctor--face-proud"><path class="r-line" d="M-36.7 -359.4Q-26 -376 -15.2 -359.4"/><path class="r-line" d="M15.2 -359.4Q26 -376 36.7 -359.4"/><path class="r-ink" d="M-31.2 -333.5Q0 -298.1 31.2 -333.5Z"/><circle class="r-glow" cx="-40.2" cy="-332.3" r="9.9"/><circle class="r-glow" cx="40.2" cy="-332.3" r="9.9"/></g><circle class="r-body" cx="-98" cy="-350" r="12"/><circle class="r-body" cx="98" cy="-350" r="12"/><g id="p-robot-doctor--antenna"><path class="r-line" d="M0 -420L0 -466"/><circle class="r-accent" cx="0" cy="-474" r="13"/></g></g></g><g class="el" data-el="coat-and-pad" transform="translate(356.4 349.2)"><g id="a-coat-and-pad" class="anim"><g transform="translate(-100 -130)"><path class="r-paper" d="M40,60 L100,10 L160,60 L145,100 L100,70 L55,100 Z"/><path class="r-line" d="M100,10 L100,70"/><rect class="r-body-alt" x="110" y="170" width="80" height="60" rx="6"/><path class="r-line" d="M122,190 L178,190 M122,202 L168,202 M122,214 L150,214"/><path class="r-accent" d="M160,222 q8,-10 15,0 q-8,8 -15,0 z"/></g></g></g><g class="el" data-el="robot-vault" transform="translate(723.6 799.2) rotate(-8) scale(0.8 0.8)"><g id="a-robot-vault" class="anim"><rect class="r-body-alt" x="-62" y="-96" width="40" height="90" rx="12"/><rect class="r-body-alt" x="22" y="-96" width="40" height="90" rx="12"/><path class="r-ink" d="M-69 -22H-21A11 11 0 0 1 -10 -11V-11A11 11 0 0 1 -21 0H-69A11 11 0 0 1 -80 -11V-11A11 11 0 0 1 -69 -22Z"/><path class="r-ink" d="M21 -22H69A11 11 0 0 1 80 -11V-11A11 11 0 0 1 69 0H21A11 11 0 0 1 10 -11V-11A11 11 0 0 1 21 -22Z"/><g transform="translate(-104 -238) rotate(0)"><g id="p-robot-vault--arm-l"><rect class="r-body-alt" x="-16" y="0" width="32" height="120" rx="16"/><circle class="r-accent" cx="0" cy="132" r="22"/></g></g><g transform="translate(104 -238) rotate(0)"><g id="p-robot-vault--arm-r"><rect class="r-body-alt" x="-16" y="0" width="32" height="120" rx="16"/><circle class="r-accent" cx="0" cy="132" r="22"/></g></g><rect class="r-body" x="-92" y="-262" width="184" height="172" rx="22"/><rect class="r-paper" x="-56" y="-226" width="112" height="70" rx="12"/><circle class="r-accent" cx="-30" cy="-191" r="10"/><circle class="r-accent-2" cx="0" cy="-191" r="10"/><circle class="r-ink" cx="30" cy="-191" r="10"/><path class="r-thin" d="M-50 -128L50 -128"/><rect class="r-body-alt" x="-22" y="-284" width="44" height="26" rx="6"/><rect class="r-body-alt" x="-86" y="-420" width="172" height="140" rx="26"/><rect class="r-paper" x="-66" y="-402" width="132" height="104" rx="18"/><g id="p-robot-vault--face-neutral"><circle class="r-ink" cx="-26" cy="-359.4" r="8.3"/><circle class="r-ink" cx="26" cy="-359.4" r="8.3"/><path class="r-line" d="M-20.8 -326.4H20.8"/></g><circle class="r-body" cx="-98" cy="-350" r="12"/><circle class="r-body" cx="98" cy="-350" r="12"/><g id="p-robot-vault--antenna"><path class="r-line" d="M0 -420L0 -466"/><circle class="r-accent" cx="0" cy="-474" r="13"/></g></g></g><g class="el" data-el="vault-door" transform="translate(907.2 669.6) scale(0.85 0.85)"><g id="a-vault-door" class="anim"><g transform="translate(-75 -95)"><rect class="r-ink" x="55" y="15" width="85" height="160" rx="10"/><path class="r-body-alt" d="M50,15 L10,35 L10,165 L50,185 Z"/><rect class="r-line" x="62" y="27" width="60" height="140" rx="6"/><circle class="r-accent" cx="28" cy="100" r="8"/></g></g></g><g class="el" data-el="guard-chair" transform="translate(961.2 799.2) scale(0.7 0.7)"><g id="a-guard-chair" class="anim"><g transform="translate(-55 -75)"><rect class="r-ink" x="18" y="100" width="10" height="40"/><rect class="r-ink" x="82" y="100" width="10" height="40"/><rect class="r-ink" x="50" y="100" width="10" height="40"/><rect class="r-body-alt" x="14" y="62" width="82" height="42" rx="8"/><rect class="r-body-alt" x="14" y="6" width="82" height="60" rx="10"/></g></g></g><rect width="1080" height="1080" fill="url(#grain-tile)" opacity=".5" style="mix-blend-mode:multiply" aria-hidden="true"/></svg>